<svg viewBox="0 0 1799 992" xmlns:ev="http://www.w3.org/2001/xml-events" height="992" xmlns="http://www.w3.org/2000/svg" xmlns:ed="http://www.edrawsoft.cn/xml/2017/SVGExtensions/" ed:name="Page-1" width="1799" ed:vSpacing="30" ed:hSpacing="30" xmlns:xlink="http://www.w3.org/1999/xlink" id="page100"><style type="text/css"><![CDATA[
g[ed\:togtopicid],g[ed\:hyperlink],g[ed\:comment],g[ed\:note] {cursor:pointer;}
g[id] {-moz-user-select: none;-ms-user-select: none;user-select: none;}
svg text::selection,svg tspan::selection{background-color: #4285f4;color: #ffffff;fill: #ffffff;}
.st3 {fill:#000000;font-family:楷体;font-size:12pt}
.st2 {fill:#000000;font-family:楷体;font-size:18pt}
.st1 {fill:#000000;font-family:楷体;font-size:24pt}
]]></style><defs><linearGradient y1="0%" x2="0%" x1="0%" y2="100%" id="lg1"><stop stop-color="#ffffff" offset="0"/><stop stop-color="#f0f5f0" offset="0.25"/><stop stop-color="#e1ebe1" offset="0.75"/><stop stop-color="#c8d7c8" offset="1"/></linearGradient></defs><rect x="0" fill="#ededed" y="0" height="992" width="1799"/><path transform="matrix(1,0,0,1,409,392)" fill="none" stroke-linejoin="round" stroke-linecap="round" ed:tosuperid="102" ed:parentid="101" d="M-2.7,11.1C22.2,-60.4,77.3,-104.1,150,-104.1" stroke="#454545" id="103"/><path transform="matrix(1,0,0,1,409,638)" fill="none" stroke-linejoin="round" stroke-linecap="round" ed:tosuperid="104" ed:parentid="101" d="M-9.8,-48.6C10.3,68.4,69.3,141.6,150,141.6" stroke="#454545" id="105"/><path transform="matrix(1,0,0,1,766,181)" fill="none" stroke-linejoin="round" stroke-linecap="round" ed:tosuperid="106" ed:parentid="102" d="M-13.5,106.6C-13.5,-21.3,-2.7,-106.6,13.5,-106.6" stroke="#454545" id="107"/><path transform="matrix(1,0,0,1,955,60)" fill="none" stroke-linejoin="round" stroke-linecap="round" ed:tosuperid="108" ed:parentid="106" d="M-13.5,15L-0.5,15C-0.5,-3,5.1,-15,13.5,-15" stroke="#454545" id="109"/><path transform="matrix(1,0,0,1,955,75)" fill="none" stroke-linejoin="round" stroke-linecap="round" ed:tosuperid="110" ed:parentid="106" d="M-0.5,0C-0.5,0,5.1,0,13.5,0" stroke="#454545" id="111"/><path transform="matrix(1,0,0,1,955,90)" fill="none" stroke-linejoin="round" stroke-linecap="round" ed:tosuperid="112" ed:parentid="106" d="M-0.5,-15C-0.5,3,5.1,15,13.5,15" stroke="#454545" id="113"/><path transform="matrix(1,0,0,1,766,219)" fill="none" stroke-linejoin="round" stroke-linecap="round" ed:tosuperid="116" ed:parentid="102" d="M-13.5,69.1C-13.5,-13.8,-2.7,-69.1,13.5,-69.1" stroke="#454545" id="117"/><path transform="matrix(1,0,0,1,1027,142)" fill="none" stroke-linejoin="round" stroke-linecap="round" ed:tosuperid="122" ed:parentid="116" d="M-13.5,7.5L-0.5,7.5C-0.5,-1.5,5.1,-7.5,13.5,-7.5" stroke="#454545" id="123"/><path transform="matrix(1,0,0,1,1027,157)" fill="none" stroke-linejoin="round" stroke-linecap="round" ed:tosuperid="124" ed:parentid="116" d="M-0.5,-7.5C-0.5,1.5,5.1,7.5,13.5,7.5" stroke="#454545" id="125"/><path transform="matrix(1,0,0,1,766,264)" fill="none" stroke-linejoin="round" stroke-linecap="round" ed:tosuperid="126" ed:parentid="102" d="M-13.5,24.1C-13.5,-4.8,-2.7,-24.1,13.5,-24.1" stroke="#454545" id="127"/><path transform="matrix(1,0,0,1,971,225)" fill="none" stroke-linejoin="round" stroke-linecap="round" ed:tosuperid="128" ed:parentid="126" d="M-13.5,15L-0.5,15C-0.5,-3,5.1,-15,13.5,-15" stroke="#454545" id="129"/><path transform="matrix(1,0,0,1,1296,202)" fill="none" stroke-linejoin="round" stroke-linecap="round" ed:tosuperid="130" ed:parentid="128" d="M-13.5,7.5L-0.5,7.5C-0.5,-1.5,5.1,-7.5,13.5,-7.5" stroke="#454545" id="131"/><path transform="matrix(1,0,0,1,1296,217)" fill="none" stroke-linejoin="round" stroke-linecap="round" ed:tosuperid="132" ed:parentid="128" d="M-0.5,-7.5C-0.5,1.5,5.1,7.5,13.5,7.5" stroke="#454545" id="133"/><path transform="matrix(1,0,0,1,971,255)" fill="none" stroke-linejoin="round" stroke-linecap="round" ed:tosuperid="134" ed:parentid="126" d="M-0.5,-15C-0.5,3,5.1,15,13.5,15" stroke="#454545" id="135"/><path transform="matrix(1,0,0,1,1248,262)" fill="none" stroke-linejoin="round" stroke-linecap="round" ed:tosuperid="136" ed:parentid="134" d="M-13.5,7.5L-0.5,7.5C-0.5,-1.5,5.1,-7.5,13.5,-7.5" stroke="#454545" id="137"/><path transform="matrix(1,0,0,1,1248,277)" fill="none" stroke-linejoin="round" stroke-linecap="round" ed:tosuperid="138" ed:parentid="134" d="M-0.5,-7.5C-0.5,1.5,5.1,7.5,13.5,7.5" stroke="#454545" id="139"/><path transform="matrix(1,0,0,1,766,339)" fill="none" stroke-linejoin="round" stroke-linecap="round" ed:tosuperid="140" ed:parentid="102" d="M-13.5,-50.9C-13.5,10.2,-2.7,50.9,13.5,50.9" stroke="#454545" id="141"/><path transform="matrix(1,0,0,1,939,352)" fill="none" stroke-linejoin="round" stroke-linecap="round" ed:tosuperid="142" ed:parentid="140" d="M-13.5,37.5L-0.5,37.5C-0.5,-7.5,5.1,-37.5,13.5,-37.5" stroke="#454545" id="143"/><path transform="matrix(1,0,0,1,939,367)" fill="none" stroke-linejoin="round" stroke-linecap="round" ed:tosuperid="144" ed:parentid="140" d="M-0.5,22.5C-0.5,-4.5,5.1,-22.5,13.5,-22.5" stroke="#454545" id="145"/><path transform="matrix(1,0,0,1,939,382)" fill="none" stroke-linejoin="round" stroke-linecap="round" ed:tosuperid="146" ed:parentid="140" d="M-0.5,7.5C-0.5,-1.5,5.1,-7.5,13.5,-7.5" stroke="#454545" id="147"/><path transform="matrix(1,0,0,1,939,397)" fill="none" stroke-linejoin="round" stroke-linecap="round" ed:tosuperid="148" ed:parentid="140" d="M-0.5,-7.5C-0.5,1.5,5.1,7.5,13.5,7.5" stroke="#454545" id="149"/><path transform="matrix(1,0,0,1,939,412)" fill="none" stroke-linejoin="round" stroke-linecap="round" ed:tosuperid="150" ed:parentid="140" d="M-0.5,-22.5C-0.5,4.5,5.1,22.5,13.5,22.5" stroke="#454545" id="151"/><path transform="matrix(1,0,0,1,939,427)" fill="none" stroke-linejoin="round" stroke-linecap="round" ed:tosuperid="152" ed:parentid="140" d="M-0.5,-37.5C-0.5,7.5,5.1,37.5,13.5,37.5" stroke="#454545" id="153"/><path transform="matrix(1,0,0,1,766,406)" fill="none" stroke-linejoin="round" stroke-linecap="round" ed:tosuperid="154" ed:parentid="102" d="M-13.5,-118.4C-13.5,23.7,-2.7,118.4,13.5,118.4" stroke="#454545" id="155"/><path transform="matrix(1,0,0,1,987,510)" fill="none" stroke-linejoin="round" stroke-linecap="round" ed:tosuperid="156" ed:parentid="154" d="M-13.5,15L-0.5,15C-0.5,-3,5.1,-15,13.5,-15" stroke="#454545" id="157"/><path transform="matrix(1,0,0,1,987,525)" fill="none" stroke-linejoin="round" stroke-linecap="round" ed:tosuperid="158" ed:parentid="154" d="M-0.5,0C-0.5,0,5.1,0,13.5,0" stroke="#454545" id="159"/><path transform="matrix(1,0,0,1,987,540)" fill="none" stroke-linejoin="round" stroke-linecap="round" ed:tosuperid="160" ed:parentid="154" d="M-0.5,-15C-0.5,3,5.1,15,13.5,15" stroke="#454545" id="161"/><path transform="matrix(1,0,0,1,784,725)" fill="none" stroke-linejoin="round" stroke-linecap="round" ed:tosuperid="162" ed:parentid="104" d="M-13.5,54.1L-0.5,54.1C-0.5,-10.8,5.1,-54.1,13.5,-54.1" stroke="#454545" id="163"/><path transform="matrix(1,0,0,1,1013,641)" fill="none" stroke-linejoin="round" stroke-linecap="round" ed:tosuperid="164" ed:parentid="162" d="M-13.5,30L-0.5,30C-0.5,-6,5.1,-30,13.5,-30" stroke="#454545" id="165"/><path transform="matrix(1,0,0,1,1013,656)" fill="none" stroke-linejoin="round" stroke-linecap="round" ed:tosuperid="166" ed:parentid="162" d="M-0.5,15C-0.5,-3,5.1,-15,13.5,-15" stroke="#454545" id="167"/><path transform="matrix(1,0,0,1,1013,671)" fill="none" stroke-linejoin="round" stroke-linecap="round" ed:tosuperid="168" ed:parentid="162" d="M-0.5,0C-0.5,0,5.1,0,13.5,0" stroke="#454545" id="169"/><path transform="matrix(1,0,0,1,1013,686)" fill="none" stroke-linejoin="round" stroke-linecap="round" ed:tosuperid="170" ed:parentid="162" d="M-0.5,-15C-0.5,3,5.1,15,13.5,15" stroke="#454545" id="171"/><path transform="matrix(1,0,0,1,784,808)" fill="none" stroke-linejoin="round" stroke-linecap="round" ed:tosuperid="172" ed:parentid="104" d="M-0.5,-28.4C-0.5,5.7,5.1,28.4,13.5,28.4" stroke="#454545" id="173"/><path transform="matrix(1,0,0,1,1013,806)" fill="none" stroke-linejoin="round" stroke-linecap="round" ed:tosuperid="174" ed:parentid="172" d="M-13.5,30L-0.5,30C-0.5,-6,5.1,-30,13.5,-30" stroke="#454545" id="175"/><path transform="matrix(1,0,0,1,1242,769)" fill="none" stroke-linejoin="round" stroke-linecap="round" ed:tosuperid="176" ed:parentid="174" d="M-13.5,7.5L-0.5,7.5C-0.5,-1.5,5.1,-7.5,13.5,-7.5" stroke="#454545" id="177"/><path transform="matrix(1,0,0,1,1242,784)" fill="none" stroke-linejoin="round" stroke-linecap="round" ed:tosuperid="178" ed:parentid="174" d="M-0.5,-7.5C-0.5,1.5,5.1,7.5,13.5,7.5" stroke="#454545" id="179"/><path transform="matrix(1,0,0,1,1013,851)" fill="none" stroke-linejoin="round" stroke-linecap="round" ed:tosuperid="180" ed:parentid="172" d="M-0.5,-15C-0.5,3,5.1,15,13.5,15" stroke="#454545" id="181"/><path transform="matrix(1,0,0,1,1282,844)" fill="none" stroke-linejoin="round" stroke-linecap="round" ed:tosuperid="182" ed:parentid="180" d="M-13.5,22.5L-0.5,22.5C-0.5,-4.5,5.1,-22.5,13.5,-22.5" stroke="#454545" id="183"/><path transform="matrix(1,0,0,1,1282,859)" fill="none" stroke-linejoin="round" stroke-linecap="round" ed:tosuperid="184" ed:parentid="180" d="M-0.5,7.5C-0.5,-1.5,5.1,-7.5,13.5,-7.5" stroke="#454545" id="185"/><path transform="matrix(1,0,0,1,1282,874)" fill="none" stroke-linejoin="round" stroke-linecap="round" ed:tosuperid="186" ed:parentid="180" d="M-0.5,-7.5C-0.5,1.5,5.1,7.5,13.5,7.5" stroke="#454545" id="187"/><path transform="matrix(1,0,0,1,1282,889)" fill="none" stroke-linejoin="round" stroke-linecap="round" ed:tosuperid="188" ed:parentid="180" d="M-0.5,-22.5C-0.5,4.5,5.1,22.5,13.5,22.5" stroke="#454545" id="189"/><path transform="matrix(1,0,0,1,784,868)" fill="none" stroke-linejoin="round" stroke-linecap="round" ed:tosuperid="190" ed:parentid="104" d="M-0.5,-88.4C-0.5,17.7,5.1,88.4,13.5,88.4" stroke="#454545" id="191"/><path transform="matrix(1,0,0,1,949,949)" fill="none" stroke-linejoin="round" stroke-linecap="round" ed:tosuperid="192" ed:parentid="190" d="M-13.5,7.5L-0.5,7.5C-0.5,-1.5,5.1,-7.5,13.5,-7.5" stroke="#454545" id="193"/><path transform="matrix(1,0,0,1,949,964)" fill="none" stroke-linejoin="round" stroke-linecap="round" ed:tosuperid="194" ed:parentid="190" d="M-0.5,-7.5C-0.5,1.5,5.1,7.5,13.5,7.5" stroke="#454545" id="195"/><path transform="matrix(1,0,0,1,1013,701)" fill="none" stroke-linejoin="round" stroke-linecap="round" ed:tosuperid="196" ed:parentid="162" d="M-0.5,-30C-0.5,6,5.1,30,13.5,30" stroke="#454545" id="197"/><g transform="matrix(1,0,0,1,22,403)" ed:width="473.8923428571428" ed:height="186.1249142857143" ed:layout="rightmap" ed:topictype="mainidea" id="101"><g transform="translate(0,0)"><path transform="matrix(1,0,0,1,0,0)" fill="#f06b6c" stroke-linejoin="round" d="M458.7,47.6L426.4,42.7L380.3,17.2C380.3,17.2,350.7,2.2,311.1,0C311.1,0,257.3,0,257.3,0C233.5,0,200.1,4.4,181.5,15.9L121.7,55.2C121.7,55.2,44.7,63.4,23.6,73.8C23.6,73.8,7.7,79.5,3.4,105.8C3.4,105.8,-2.8,113,1.6,123.6L1.6,140.9C1.6,140.9,1.4,146.9,17.2,150.5L57.8,157.7C57.8,157.7,63.7,175.7,81.9,180.5C100.1,185.4,118.1,175.3,126.8,156.3L139.3,158.7L314,157L329.7,154.3C329.7,154.3,334.6,186.1,365.3,186.1C396.1,186.1,401.1,154.3,401.1,154.3L411.8,154.3L420.7,151.7L461.2,145.7C461.2,145.7,473.1,141.1,473.9,130.5L473.9,104.8C473.9,104.8,473.9,98.8,468.8,96.4C468.8,96.4,472.5,50.5,458.7,47.6z" stroke="#f16b6c" id="3779"/><g transform="translate(64.66,7.42)"><path transform="matrix(1,0,0,1,198,0)" fill="#ffffff" stroke-linejoin="round" d="M5.6,0.8L0,42.1C0,42.1,-1.5,48.4,7,48.4L63.9,46.2L67.5,5.8C67.5,5.8,35.3,-2.6,5.6,0.8z" stroke="#ffffff" id="3781"/><path transform="matrix(1,0,0,1,266,6)" fill="#ffffff" stroke-linejoin="round" d="M3.2,0C3.2,0,27.9,7.7,37.5,19C37.5,19,43.9,33,30.8,37L0,39.2L3.2,0z" stroke="#ffffff" id="3782"/><path transform="matrix(1,0,0,1,97,0)" fill="#ffffff" stroke-linejoin="round" d="M95,0L82.3,43.7C82.3,43.7,81.5,48.5,74.6,49.5L12.9,52.4C12.9,52.4,9.2,52.7,2.3,52.5C2.3,52.5,-4.7,47.7,5.8,34.3C5.8,34.3,25.2,12.4,52.4,5.2C52.4,5.2,77.6,-1.4,95,0z" stroke="#ffffff" id="3783"/><path transform="matrix(1,0,0,1,276,104)" fill="#ffffff" stroke-linejoin="round" d="M51.8,30.8C51.8,13.8,40.2,0,25.9,0C11.6,0,0,13.8,0,30.8C0,47.7,11.6,61.5,25.9,61.5C40.2,61.5,51.8,47.7,51.8,30.8z" stroke="#ffffff" id="3784"/><path transform="matrix(1,0,0,1,385,43)" fill="#ffffff" stroke-linejoin="round" d="M16.8,36.1C16.8,36.1,0,37.3,0,36.1C0,34.9,0,13.9,0,13.9C0,13.9,2.2,2.4,10.3,0C10.3,0,15.8,0,16.8,18.8L16.8,36.1z" stroke="#ffffff" id="3785"/><path transform="matrix(1,0,0,1,268,61)" fill="#ffffff" stroke-linejoin="round" d="M17.8,0L2.4,0C1.1,0,0,1.3,0,2.9C0,4.5,1.1,5.8,2.4,5.8L17.8,5.8C19.1,5.8,20.2,4.5,20.2,2.9C20.2,1.3,19.1,0,17.8,0z" stroke="#ffffff" id="3786"/><path transform="matrix(1,0,0,1,0,99)" fill="#ffffff" stroke-linejoin="round" d="M51.8,30.8C51.8,13.8,40.2,0,25.9,0C11.6,0,0,13.8,0,30.8C0,47.7,11.6,61.5,25.9,61.5C40.2,61.5,51.8,47.7,51.8,30.8z" stroke="#ffffff" id="3787"/><path transform="matrix(1,0,0,1,152,62)" fill="#ffffff" stroke-linejoin="round" d="M17.8,0L2.4,0C1.1,0,0,1.3,0,2.9C0,4.5,1.1,5.8,2.4,5.8L17.8,5.8C19.1,5.8,20.2,4.5,20.2,2.9C20.2,1.3,19.1,0,17.8,0z" stroke="#ffffff" id="3788"/></g></g><text class="st1"><tspan x="75" y="106.9" style="white-space:pre">无人驾驶汽车系统架构</tspan></text></g><g transform="matrix(1,0,0,1,559,222)" ed:width="193.2225274725273" ed:height="132.2048872180449" ed:parentid="101" id="102"><g transform="translate(0,0)"><path transform="matrix(1,0,0,1,87,0)" fill="#30c9f7" stroke-linejoin="round" d="M0,0C6.6,0,16.1,0.5,21.4,2.6C27.4,4.9,36.5,5.2,49.8,13.3C63,21.4,64.6,18.3,73.7,27.4C82.8,36.5,86.1,35.8,91.1,46.5C96,57.2,102.5,62.9,102.5,69.4C102.5,76,106.7,85.9,106.7,95.3C106.7,104.7,104.6,117.7,98.3,122.4C92.1,127.1,85.6,121.9,77.3,121.4C69,120.9,57,126.6,49.8,124.5C42.5,122.4,37.8,124.3,31.6,127.4C25.3,130.5,21.7,124.8,15,129.2C9.4,132.9,5.9,128.9,0,129.8L0,0z" stroke="#00b4f0" id="2828"/><path transform="matrix(1,0,0,1,87,3)" fill="#30c9f7" stroke-linejoin="round" d="M56.1,79.2C62.3,75.9,67.1,78.2,68.1,78.9C66.2,77.7,63.1,77.8,55.6,79.9C54,81.5,52.3,82.8,50.6,83.7C53.3,83.7,53.7,87.1,53.7,87.1C52,83.9,51.1,84.6,49.8,84.1C44.1,87,38.6,86.5,38.6,86.5C38.3,87.2,36.9,87.8,34.9,88.4C37.3,89.2,37.8,91.1,37.8,91.1C37.5,91.1,35.6,89.5,34.1,88.6C29.9,89.7,23.6,90.4,18.4,89.8C11.7,89.2,9.6,91.4,5,94.3C4.5,95.8,6.2,97.7,9.2,100.3C12.1,102.9,12.4,107.5,13.3,108.5C20.2,107.2,23.7,108.7,23.7,108.7C23.7,108.7,25.1,105.2,28.1,105.9C31,106.6,43.7,108,46.2,107.3C48.8,106.6,57.7,106.4,61.1,105.2C64.6,103.9,70.7,97.2,70.7,97.2C70.7,99.4,63.7,105.5,62,106.4C67.2,108.5,75.9,101.7,78.1,90.9C78.8,100.6,66,111.1,62,106.4C62,106.4,62,106.4,62,106.4C60.3,107.3,49.5,107,47.3,108.3C45,109.6,30.5,107.4,27.8,107C25.1,106.6,24.4,110.4,24.4,110.4C24.6,111.1,24.7,111.9,24.6,112.6C36.7,118.7,54.4,115.6,54.4,115.6C45.6,118.7,32,117,24.6,112.6C24.1,117,17.3,119.9,14,120.5C11,120.5,4,120.7,1.1,118C0.2,117.2,-0.2,116.1,0.1,114.7C0,115,0,115.9,1.1,117C2.2,118,3.3,118.8,8,119.3C17.5,120.5,25.1,115.4,24.2,110.3L21.7,108.7C17.9,106.9,12.2,110.8,8.7,110.2C4.6,109.5,-1.5,96.1,0.3,95.9C0.6,95.9,0.3,95.4,0.5,95.4C2.4,95.2,4.1,93.7,6.2,92.2C7.6,89.8,7.1,87.5,6.1,86.5C8.2,87.4,8.1,89.6,7.3,91.4C10.1,89.5,13.6,87.9,18.9,88.8C29.1,90.5,37.3,85.3,38.6,85.1C41.8,80.7,41.7,74.5,39.7,73.1C43.8,75.6,41.7,82.5,39.6,85.4C45,86.3,55.3,82.5,61.3,69.8C60,73.9,58.2,76.9,56.1,79.2zM49.2,29.8C49.2,29.8,52.4,29.4,52.8,29.8C53.1,30.1,55.3,32.3,59,34.8C58.3,34.5,57.1,34.4,57.1,35.9C57.9,35.1,59,35.1,59.5,35.1C61.4,36.3,63.7,37.7,66.3,38.9C73,41.9,78.2,42.2,80,45C82.3,48.6,80,49.7,80,49.7L82.5,50C88.7,55.9,86.8,67.4,86.8,67.4L88,68.1C93.4,71.7,92.7,76.9,92.3,80C91.9,83,85.8,84.7,85.8,84.7C85.8,84.7,89.6,84.7,91.2,83C92.9,81.3,93.2,81.2,94.5,81.8C95.9,82.3,97,91,96.5,95.4C95.9,99.9,93.4,100.7,93.4,100.7C93.4,100.7,95.4,101.1,97,96.3C98.7,91.4,96.9,86.9,96.5,82.9C96.1,78.8,96.3,78,97.6,76.3C99.3,74.1,104,75.2,104,75.2C101.5,73.4,98.4,74.7,97,75.6C95.6,76.6,95.4,80.1,95.4,80.8C95.4,81.5,95.4,81.7,94.1,80.4C92.8,79.1,94.4,78.7,93.3,74C92.2,69.2,88,66.9,88,66.9C88.7,52.5,81.9,48.6,81.9,48.6C81.9,48.6,81.9,47.4,80.8,44.6C79.7,41.8,71.1,40.1,66.9,38.1C62.7,36.1,58.1,34,55.7,31.1C53.7,28.5,53,28.2,53.2,25.7C52.5,29.4,49.2,29.8,49.2,29.8zM35.2,12.2C29.8,13.4,32,20.2,27,20.9C22,21.6,15.6,24.7,14,30.3C12.5,35.9,11.8,38.8,8.1,43.2C4.5,47.5,11.4,60.8,5,65.1C12.8,63.9,5.9,48.8,9,43.7C12.1,38.7,13.7,35.9,15.1,30.6C16.5,25.4,23.9,21.8,27.5,21.8C31.2,21.8,31.5,14.5,34.8,13.2C37.4,12.3,48.2,11.1,51.1,11.1C47.6,10.1,40.5,11,35.2,12.2zM72.6,24C65.6,22.6,57.5,17.4,53.5,20.4C49.5,23.3,47.8,24.6,44.5,25.1C41.2,25.6,41.7,31.9,34.6,32.4C27.5,32.9,34.6,37.6,27.5,46C21.7,52.9,24.9,56.3,27.8,57.7C28.1,59.7,26.8,61.8,26.8,61.8C26.8,61.8,29.5,61.4,28,57.8C28.5,58.1,29,58.2,29.4,58.3C32.2,59,32.6,63.1,32.6,63.1C32.6,63.1,34.5,59.9,30.1,57.6C25.8,55.4,22.5,54.3,30.1,44.1C34.6,38.1,30.5,33.3,34.1,33.8C39.6,34.6,42.4,27.9,45,26.5C47.6,25.1,51.7,23,54,21.6C59.6,18.1,70.3,26.2,72.6,24zM72.8,52.8C68.1,49.8,62.2,55.7,59.8,55.7C57.3,55.7,58.5,52.6,56.1,49.1C53.7,45.6,45.6,46,44.7,43.5C43.8,41.1,44.7,38.1,44.7,38.1C43.7,41.3,44.9,42.8,39.3,44.7C39.3,44.7,42.7,44.2,45,45.3C48.5,46.8,53.4,47,55.4,49.6C56.7,51.2,57.7,57,59.1,57.2C60,59.3,58,61.1,58,61.1C58.7,61.1,60.8,59.3,59.3,57.1C59.4,57.1,59.4,57.1,59.4,57.1C61,56.4,70,50.8,72.9,53.8C76.4,57.3,79.5,61.6,75.2,71.7C81.1,64.4,77.5,55.7,72.8,52.8zM1.2,75.1C9.8,73.6,21.3,70,30.8,67.3C31.1,67,31.4,66.8,31.8,66.6C31.6,66.7,31.5,66.9,31.4,67.1C36.8,65.5,40.9,64.3,42.4,63.9C43.2,63.7,44,63.4,44.6,62.7C44.5,62.4,44.4,62.2,44.3,62C47.4,59.6,47.4,53.5,38.5,51C38.5,51,50.4,56.1,42.4,62.5C42.4,62.5,31,66.4,16.3,70.2C16,70.5,15.7,70.8,15.2,71.1C15.5,70.8,15.7,70.6,15.9,70.3C10.8,71.6,6.4,73,1,74.1C0,74.3,0.1,75.3,1.2,75.1zM6.1,98.6C4.3,96.8,2.6,96.3,1.7,96.2C1.4,96.4,1.1,96.5,0.9,96.6C0.7,96.7,1.6,95.7,0.9,98C0,100.2,8.7,114.2,11.9,108.3C12.1,105.5,8.7,101.2,6.1,98.6zM46.6,98.2C40.9,98.6,31.7,94.4,31.7,102.4C34.1,97.5,34.7,99.2,47.1,99.2C61,99.2,68.4,91.6,67.4,89.3C63.2,97,52.3,97.9,46.6,98.2zM69.3,25.5C73.2,27.3,77.9,33.6,81.9,37.1C85.9,40.5,84.8,41.7,86.9,45.1C86.9,45.1,87.6,40.7,82.1,36.1C78.5,33.1,73.5,25.5,69.3,25.5zM15.9,70.3C16,70.3,16.2,70.3,16.3,70.2C20.5,65.7,11.6,55,16.5,49.4C21.2,44,25.1,34.1,19.1,34.1C19.1,34.1,25.6,37.3,15.6,48.9C10.4,55,19.1,65.6,15.9,70.3zM64.6,109.1C72.2,114.4,81.4,111.4,82.8,96.5C79.9,110.5,72.2,113,64.6,109.1zM72.9,88.5C75.2,87.2,73.8,87.8,77.9,90.5C82.1,93.3,87.1,92.8,87.1,92.8C87.1,92.8,80.7,91.1,78.6,89.8C76.6,88.6,75.2,87.8,74.7,85.8C74.7,82.2,79.9,79.4,79.9,79.4C77.4,79.4,75.5,81.8,74,85.3C72.4,88.8,67.4,88.1,67.4,89.3C68.1,90.2,70.7,89.7,72.9,88.5zM20.1,71.9C14.9,73.5,14.4,82.6,12.8,86.1C16.8,81.1,14.6,72.2,24.7,71.5C24.7,71.5,23.3,70.9,20.1,71.9zM76.7,115.8C85.1,113.1,86.1,104.2,85.4,102.8C84.4,109.9,80.7,113,76.7,115.8zM31.4,67.1C31.2,67.1,31,67.2,30.8,67.3C27.1,70.6,28.2,80.3,24,82.3C29.5,81.4,27.3,73.3,31.4,67.1zM19.9,11C19.9,11,23,6.8,32.2,4.2C32.2,4.2,27.4,4.2,23.3,7.2C25.9,4,20.8,3.3,20.8,3.3C20.8,3.3,24.6,5,23,7.4C21.8,8.3,20.8,9.5,19.9,11zM13.5,0.7C8.5,0.3,4.5,3.7,0.5,3.3C4.5,4.9,8.7,1.7,12,1.7C15.2,1.7,18.4,1.7,19.4,0C19.4,0,18.5,1,13.5,0.7zM24.4,103.3C24.4,103.3,22.3,102.7,16.3,96.6C17.2,100.6,24.1,103.3,24.4,103.3zM-3.3,74.7zM1.7,96.2C2.9,95.6,4,95,5,94.3L3.1,95.1L3.2,96.7C3.2,96.7,1.1,96.2,1.7,96.2zM44.8,62.5C44.7,62.5,44.7,62.6,44.6,62.7C45.6,64.7,47.3,65.5,47.3,65.5L44.8,62.5zM7.3,91.4C6.9,91.7,6.6,93.1,7.3,91.4zM11.6,108.7zM39.6,85.4zM55.6,79.9C55.8,79.7,56,79.5,56.1,79.2C55.7,79.5,55.2,79.8,54.7,80.1C55,80,55.3,79.9,55.6,79.9zM34.1,88.6C34.4,88.5,34.6,88.5,34.9,88.4C34.3,88.2,33.6,88.1,32.6,88.1C32.9,88.1,33.5,88.3,34.1,88.6zM-37.6,14.6zM-32.2,52.6zM23.3,7.2C23.2,7.3,23.1,7.4,23,7.4C22.9,7.6,22.7,7.8,22.5,8C22.9,7.7,23.1,7.4,23.3,7.2zM49.8,84.1C50.1,84,50.3,83.9,50.6,83.7C50.2,83.7,49.8,83.8,49.4,83.9C49.5,84,49.7,84.1,49.8,84.1zM24.2,110.3C24.2,110,24.1,109.7,23.9,109.3C24,109.7,24.1,110,24.2,110.3zM59.1,57.2C59.2,57.2,59.3,57.2,59.3,57.1C59.2,56.9,59,56.7,58.7,56.4C58.9,56.7,59,56.9,59.1,57.2zM27.8,57.7C27.8,57.7,27.9,57.8,28,57.8C27.9,57.5,27.7,57.2,27.5,56.9C27.6,57.2,27.7,57.4,27.8,57.7zM-26,44.6zM59,34.8zM53.4,24.5C53.3,25,53.3,25.3,53.2,25.7C53.3,25.3,53.4,24.9,53.4,24.5zM-29.5,13.5zM24.6,112.6C24.6,112.6,24.6,112.6,24.6,112.6C24.6,112.6,24.5,112.5,24.4,112.5C24.5,112.5,24.6,112.6,24.6,112.6zM62,106.4C62,106.4,62,106.4,62,106.4C62,106.4,62,106.4,62,106.4C62,106.4,62,106.4,62,106.4z" stroke="#ffffff" id="2829"/><path transform="matrix(1,0,0,1,0,0)" fill="#30c9f7" stroke-linejoin="round" d="M55.2,93.9C43.7,97.6,41.9,92.7,31.7,95.3C21.6,97.9,13.3,99.5,5.5,90.6C-2.3,81.7,-2,56.9,7.8,41.2C17.7,25.6,25.2,17.5,32.3,12.5C39.3,7.6,46.8,7.6,51,5C52.3,4.1,56.7,0.5,66,1C75.4,1.6,76.9,0,83.4,0C84.3,0,85.3,0,86.4,0L86.4,129.7C84.9,129.8,83.4,130.2,81.6,131.1C73,135.2,57.2,127.1,52.8,120.4C48.4,113.6,47.3,101.8,55.2,93.9z" stroke="#007fcc" id="2830"/><path transform="matrix(1,0,0,1,70,67)" fill="#30c9f7" stroke-linejoin="round" d="M1.8,0.8C1.8,1.3,1.4,1.6,0.9,1.6C0.4,1.6,0,1.3,0,0.8C0,0.4,0.4,0,0.9,0C1.4,0,1.8,0.4,1.8,0.8z" stroke="#ffffff" id="2831"/><path transform="matrix(1,0,0,1,21,61)" fill="#30c9f7" stroke-linejoin="round" d="M65.8,0L26.3,0L23.7,2.3L12.6,2.3L10,0L0,0" stroke="#ffffff" id="2832"/><path transform="matrix(1,0,0,1,19,60)" fill="#30c9f7" stroke-linejoin="round" d="M1.8,0.8C1.8,1.3,1.4,1.6,0.9,1.6C0.4,1.6,0,1.3,0,0.8C0,0.4,0.4,0,0.9,0C1.4,0,1.8,0.4,1.8,0.8z" stroke="#ffffff" id="2833"/><path transform="matrix(1,0,0,1,34,51)" fill="#30c9f7" stroke-linejoin="round" d="M29.6,4L38.1,4L38.1,0L0,0" stroke="#ffffff" id="2834"/><path transform="matrix(1,0,0,1,31,50)" fill="#30c9f7" stroke-linejoin="round" d="M3,1.4C3,2.1,2.3,2.7,1.5,2.7C0.7,2.7,0,2.1,0,1.4C0,0.6,0.7,0,1.5,0C2.3,0,3,0.6,3,1.4z" stroke="#ffffff" id="2835"/><path transform="matrix(1,0,0,1,33,66)" fill="#30c9f7" stroke-linejoin="round" d="M16.5,0L12.8,3.3L0,3.3" stroke="#ffffff" id="2836"/><path transform="matrix(1,0,0,1,31,68)" fill="#30c9f7" stroke-linejoin="round" d="M1.8,0.8C1.8,1.3,1.4,1.6,0.9,1.6C0.4,1.6,0,1.3,0,0.8C0,0.4,0.4,0,0.9,0C1.4,0,1.8,0.4,1.8,0.8z" stroke="#ffffff" id="2837"/><path transform="matrix(1,0,0,1,47,68)" fill="#30c9f7" stroke-linejoin="round" d="M22.3,0L3.6,0L0.3,2.7L0,6.4" stroke="#ffffff" id="2838"/><path transform="matrix(1,0,0,1,46,74)" fill="#30c9f7" stroke-linejoin="round" d="M1.8,0.8C1.8,1.3,1.4,1.6,0.9,1.6C0.4,1.6,0,1.3,0,0.8C0,0.4,0.4,0,0.9,0C1.4,0,1.8,0.4,1.8,0.8z" stroke="#ffffff" id="2839"/><path transform="matrix(1,0,0,1,36,30)" fill="#30c9f7" stroke-linejoin="round" d="M50.1,15.3L11.3,15.2L0,5.2L0,0" stroke="#ffffff" id="2840"/><path transform="matrix(1,0,0,1,35,28)" fill="#30c9f7" stroke-linejoin="round" d="M2.3,1C2.3,1.6,1.8,2,1.1,2C0.5,2,0,1.6,0,1C0,0.5,0.5,0,1.1,0C1.8,0,2.3,0.5,2.3,1z" stroke="#ffffff" id="2841"/><path transform="matrix(1,0,0,1,33,72)" fill="#30c9f7" stroke-linejoin="round" d="M53.6,0L27.4,0L15.1,11.1L0,11.1" stroke="#ffffff" id="2842"/><path transform="matrix(1,0,0,1,31,82)" fill="#30c9f7" stroke-linejoin="round" d="M2.3,1C2.3,1.6,1.8,2,1.1,2C0.5,2,0,1.6,0,1C0,0.5,0.5,0,1.1,0C1.8,0,2.3,0.5,2.3,1z" stroke="#ffffff" id="2843"/><path transform="matrix(1,0,0,1,48,30)" fill="#30c9f7" stroke-linejoin="round" d="M34.4,14.9L29.1,10L5,10L0,5.5L0,2L2.2,0L5.9,0" stroke="#ffffff" id="2844"/><path transform="matrix(1,0,0,1,54,29)" fill="#30c9f7" stroke-linejoin="round" d="M2.3,1C2.3,1.6,1.8,2,1.1,2C0.5,2,0,1.6,0,1C0,0.5,0.5,0,1.1,0C1.8,0,2.3,0.5,2.3,1z" stroke="#ffffff" id="2845"/><path transform="matrix(1,0,0,1,73,103)" fill="#30c9f7" stroke-linejoin="round" d="M13.7,5.1L5.1,5L0,0" stroke="#ffffff" id="2846"/><path transform="matrix(1,0,0,1,71,101)" fill="#30c9f7" stroke-linejoin="round" d="M0,1.3C0,0.6,0.6,0,1.3,0C2.1,0,2.7,0.6,2.7,1.3C2.7,2.1,2.1,2.7,1.3,2.7C0.6,2.7,0,2.1,0,1.3z" stroke="#ffffff" id="2847"/><path transform="matrix(1,0,0,1,61,116)" fill="#30c9f7" stroke-linejoin="round" d="M25.3,0L13.3,0L9.8,4.4L3.5,4.4L0,0" stroke="#ffffff" id="2848"/><path transform="matrix(1,0,0,1,60,115)" fill="#30c9f7" stroke-linejoin="round" d="M0,0.8C0,0.4,0.4,0,0.8,0C1.3,0,1.6,0.4,1.6,0.8C1.6,1.3,1.3,1.6,0.8,1.6C0.4,1.6,0,1.3,0,0.8z" stroke="#ffffff" id="2849"/><path transform="matrix(1,0,0,1,62,11)" fill="#30c9f7" stroke-linejoin="round" d="M24.6,6.7L17.6,0L0,0.1" stroke="#ffffff" id="2850"/><path transform="matrix(1,0,0,1,59,10)" fill="#30c9f7" stroke-linejoin="round" d="M0,1.5C0,0.7,0.6,0,1.4,0C2.2,0,2.9,0.7,2.9,1.5C2.9,2.3,2.2,2.9,1.4,2.9C0.6,2.9,0,2.3,0,1.5z" stroke="#ffffff" id="2851"/><path transform="matrix(1,0,0,1,69,15)" fill="#30c9f7" stroke-linejoin="round" d="M18,7.8L9.3,0L0,0" stroke="#ffffff" id="2852"/><path transform="matrix(1,0,0,1,66,14)" fill="#30c9f7" stroke-linejoin="round" d="M0,1.5C0,0.7,0.6,0,1.4,0C2.2,0,2.9,0.7,2.9,1.5C2.9,2.3,2.2,2.9,1.4,2.9C0.6,2.9,0,2.3,0,1.5z" stroke="#ffffff" id="2853"/><path transform="matrix(1,0,0,1,56,17)" fill="#30c9f7" stroke-linejoin="round" d="M30.3,17.9L23.2,10.8L10.7,10.8L0,0" stroke="#ffffff" id="2854"/><path transform="matrix(1,0,0,1,54,15)" fill="#30c9f7" stroke-linejoin="round" d="M0,1.5C0,0.7,0.6,0,1.4,0C2.2,0,2.9,0.7,2.9,1.5C2.9,2.3,2.2,2.9,1.4,2.9C0.6,2.9,0,2.3,0,1.5z" stroke="#ffffff" id="2855"/><path transform="matrix(1,0,0,1,58,97)" fill="#30c9f7" stroke-linejoin="round" d="M0,5.5L6.3,5.4L11.7,0" stroke="#ffffff" id="2856"/><path transform="matrix(1,0,0,1,70,94)" fill="#30c9f7" stroke-linejoin="round" d="M2.3,1.2C2.3,1.8,1.8,2.3,1.1,2.3C0.5,2.3,0,1.8,0,1.2C0,0.5,0.5,0,1.1,0C1.8,0,2.3,0.5,2.3,1.2z" stroke="#ffffff" id="2857"/><path transform="matrix(1,0,0,1,13,76)" fill="#30c9f7" stroke-linejoin="round" d="M0,3L11.7,3L15,0" stroke="#ffffff" id="2858"/><path transform="matrix(1,0,0,1,28,74)" fill="#30c9f7" stroke-linejoin="round" d="M2.3,1.2C2.3,1.8,1.8,2.3,1.1,2.3C0.5,2.3,0,1.8,0,1.2C0,0.5,0.5,0,1.1,0C1.8,0,2.3,0.5,2.3,1.2z" stroke="#ffffff" id="2859"/><path transform="matrix(1,0,0,1,21,42)" fill="#30c9f7" stroke-linejoin="round" d="M0,4.5L7.2,4.2L7.3,0L14.9,0L19.3,4.4" stroke="#ffffff" id="2860"/><path transform="matrix(1,0,0,1,40,46)" fill="#30c9f7" stroke-linejoin="round" d="M1.6,0.8C1.6,1.3,1.3,1.6,0.8,1.6C0.4,1.6,0,1.3,0,0.8C0,0.4,0.4,0,0.8,0C1.3,0,1.6,0.4,1.6,0.8z" stroke="#ffffff" id="2861"/><path transform="matrix(1,0,0,1,56,101)" fill="#30c9f7" stroke-linejoin="round" d="M2.3,1.2C2.3,1.8,1.8,2.3,1.1,2.3C0.5,2.3,0,1.8,0,1.2C0,0.5,0.5,0,1.1,0C1.8,0,2.3,0.5,2.3,1.2z" stroke="#ffffff" id="2862"/><path transform="matrix(1,0,0,1,36,82)" fill="#30c9f7" stroke-linejoin="round" d="M0,6.3L25.5,6.3L32.5,0" stroke="#ffffff" id="2863"/><path transform="matrix(1,0,0,1,68,80)" fill="#30c9f7" stroke-linejoin="round" d="M0,0.8C0,0.4,0.4,0,0.9,0C1.4,0,1.8,0.4,1.8,0.8C1.8,1.3,1.4,1.6,0.9,1.6C0.4,1.6,0,1.3,0,0.8z" stroke="#ffffff" id="2864"/><path transform="matrix(1,0,0,1,35,87)" fill="#30c9f7" stroke-linejoin="round" d="M0,0.8C0,0.4,0.4,0,0.9,0C1.4,0,1.8,0.4,1.8,0.8C1.8,1.3,1.4,1.6,0.9,1.6C0.4,1.6,0,1.3,0,0.8z" stroke="#ffffff" id="2865"/><path transform="matrix(1,0,0,1,12,79)" fill="#30c9f7" stroke-linejoin="round" d="M1.8,0.8C1.8,1.3,1.4,1.6,0.9,1.6C0.4,1.6,0,1.3,0,0.8C0,0.4,0.4,0,0.9,0C1.4,0,1.8,0.4,1.8,0.8z" stroke="#ffffff" id="2866"/><path transform="matrix(1,0,0,1,77,88)" fill="#30c9f7" stroke-linejoin="round" d="M0,0.3L7,0L7.2,4.4L9.3,4.4" stroke="#ffffff" id="2867"/><path transform="matrix(1,0,0,1,60,86)" fill="#30c9f7" stroke-linejoin="round" d="M0,5.5L6.3,5.4L11.7,0" stroke="#ffffff" id="2868"/><path transform="matrix(1,0,0,1,71,84)" fill="#30c9f7" stroke-linejoin="round" d="M2.3,1.2C2.3,1.8,1.8,2.3,1.1,2.3C0.5,2.3,0,1.8,0,1.2C0,0.5,0.5,0,1.1,0C1.8,0,2.3,0.5,2.3,1.2z" stroke="#ffffff" id="2869"/><path transform="matrix(1,0,0,1,57,90)" fill="#30c9f7" stroke-linejoin="round" d="M2.3,1.2C2.3,1.8,1.8,2.3,1.1,2.3C0.5,2.3,0,1.8,0,1.2C0,0.5,0.5,0,1.1,0C1.8,0,2.3,0.5,2.3,1.2z" stroke="#ffffff" id="2870"/><path transform="matrix(1,0,0,1,76,88)" fill="#30c9f7" stroke-linejoin="round" d="M1.6,0.8C1.6,1.3,1.3,1.6,0.8,1.6C0.4,1.6,0,1.3,0,0.8C0,0.4,0.4,0,0.8,0C1.3,0,1.6,0.4,1.6,0.8z" stroke="#ffffff" id="2871"/><path transform="matrix(1,0,0,1,19,46)" fill="#30c9f7" stroke-linejoin="round" d="M2.3,1.2C2.3,1.8,1.8,2.3,1.1,2.3C0.5,2.3,0,1.8,0,1.2C0,0.5,0.5,0,1.1,0C1.8,0,2.3,0.5,2.3,1.2z" stroke="#ffffff" id="2872"/><path transform="matrix(1,0,0,1,86,0)" fill="#30c9f7" stroke-linejoin="round" d="M0,0L0.7,129.7L0,0z" stroke="#ffffff" id="2873"/></g><text class="st2"><tspan x="41" y="62.9" style="white-space:pre"> 感知系统</tspan><tspan x="41" y="89.9" style="white-space:pre">Precision</tspan></text></g><g transform="matrix(1,0,0,1,559,673)" ed:width="212" ed:height="212" ed:parentid="101" id="104"><g transform="translate(0,0)"><path transform="matrix(1,0,0,1,0,0)" fill="#ffd900" stroke-linejoin="round" d="M0,106C0,47.4,47.4,0,106,0C164.5,0,212,47.4,212,106C212,164.5,164.5,212,106,212C47.4,212,0,164.5,0,106zM105.5,18.8C105.5,18.8,69.6,17.9,43,45C17.1,71.4,18.9,105.5,18.9,105.4C18.9,105.5,17.6,140.6,44.7,167.2C71.3,193.3,105.5,192.1,105.5,192.1C105.5,192.1,140.7,193.8,167.8,165.7C195.2,137.3,192.5,106,192.5,106C192.5,106,193.4,71.9,167.3,44.5C142,17.9,105.5,18.8,105.5,18.8z" stroke="#595757" id="4741"/><path transform="matrix(1,0,0,1,24,18)" fill="#ffd900" stroke-linejoin="round" d="M62.5,2.7C62.5,2.7,84.3,22.4,68.6,52.4C68.6,52.4,59.8,62.9,57.6,65.2C57.6,65.2,52.3,67.8,49.6,82.4C49.6,82.4,47.2,101.4,33.9,110C20.5,118.6,8.6,117.6,0,116.1C0,116.1,3.9,132.5,19,147.7C19,147.7,22.3,128.1,38.9,120.4C38.9,120.4,53.8,113.3,72.2,119.2C72.2,119.2,83.4,123.1,91.5,119.2C91.5,119.2,103.1,112.1,114,115.4C114,115.4,131,119.2,139.9,130.8C139.9,130.8,146.6,139.9,146.6,145.6C146.6,145.6,160.5,132.6,165.9,111.8C165.9,111.8,159.2,116.2,149.1,114.8C149.1,114.8,127.4,112.1,118.2,92.2C118.2,92.2,114.9,83.3,114,80.3C114,80.3,111.4,69,102.8,63.7C102.8,63.7,93.6,55.6,91.2,50.9C91.2,50.9,77.2,23.3,98.3,2.2C98.3,2.2,76.2,-3.2,62.5,2.7z" stroke="#595757" id="4742"/></g><text class="st2"><tspan x="15" y="102.8" style="white-space:pre">   决策系统   </tspan><tspan x="15" y="129.8" style="white-space:pre">Decision Making</tspan></text></g><g transform="matrix(1,0,0,1,779,51)" ed:width="162" ed:height="23.5" ed:parentid="102" id="106"><path fill="none" stroke-linejoin="round" d="M0,23.5L162,23.5" stroke="#454545"/><text class="st3"><tspan x="8" y="18.6" style="white-space:pre">定位模块|Localizer</tspan></text></g><g transform="matrix(1,0,0,1,968,21)" ed:width="370" ed:height="23.5" ed:parentid="106" id="108"><path fill="none" stroke-linejoin="round" d="M0,23.5L370,23.5" stroke="#454545"/><text class="st3"><tspan x="8" y="18.6" style="white-space:pre">基于LIDAR的定位方法|LIDAR-Based Localization</tspan></text></g><g transform="matrix(1,0,0,1,968,51)" ed:width="538" ed:height="23.5" ed:parentid="106" id="110"><path fill="none" stroke-linejoin="round" d="M0,23.5L538,23.5" stroke="#454545"/><text class="st3"><tspan x="8" y="18.6" style="white-space:pre">基于LIDAR + 摄像头的定位方法|LIDAR plus Camera-Based Localization</tspan></text></g><g transform="matrix(1,0,0,1,968,81)" ed:width="394" ed:height="23.5" ed:parentid="106" id="112"><path fill="none" stroke-linejoin="round" d="M0,23.5L394,23.5" stroke="#454545"/><text class="st3"><tspan x="8" y="18.6" style="white-space:pre">基于摄像头的定位方法| Camera-Based Localization</tspan></text></g><g transform="matrix(1,0,0,1,779,126)" ed:width="234" ed:height="23.5" ed:parentid="102" id="116"><path fill="none" stroke-linejoin="round" d="M0,23.5L234,23.5" stroke="#454545"/><text class="st3"><tspan x="8" y="18.6" style="white-space:pre">障碍物测绘|Obstacle Mapping</tspan></text></g><g transform="matrix(1,0,0,1,1040,111)" ed:width="450" ed:height="23.5" ed:parentid="116" id="122"><path fill="none" stroke-linejoin="round" d="M0,23.5L450,23.5" stroke="#454545"/><text class="st3"><tspan x="8" y="18.6" style="white-space:pre">离散度量空间表征|Discrete Space Metric Representations</tspan></text></g><g transform="matrix(1,0,0,1,1040,141)" ed:width="466" ed:height="23.5" ed:parentid="116" id="124"><path fill="none" stroke-linejoin="round" d="M0,23.5L466,23.5" stroke="#454545"/><text class="st3"><tspan x="8" y="18.6" style="white-space:pre">连续度量空间表征|Continuous Space Metric Representations</tspan></text></g><g transform="matrix(1,0,0,1,779,216)" ed:width="178" ed:height="23.5" ed:parentid="102" id="126"><path fill="none" stroke-linejoin="round" d="M0,23.5L178,23.5" stroke="#454545"/><text class="st3"><tspan x="8" y="18.6" style="white-space:pre">道路测绘|Road Mapper</tspan></text></g><g transform="matrix(1,0,0,1,984,186)" ed:width="298" ed:height="23.5" ed:parentid="126" id="128"><path fill="none" stroke-linejoin="round" d="M0,23.5L298,23.5" stroke="#454545"/><text class="st3"><tspan x="8" y="18.6" style="white-space:pre">路线图表征| Road Map Representation</tspan></text></g><g transform="matrix(1,0,0,1,1309,171)" ed:width="258" ed:height="23.5" ed:parentid="128" id="130"><path fill="none" stroke-linejoin="round" d="M0,23.5L258,23.5" stroke="#454545"/><text class="st3"><tspan x="8" y="18.6" style="white-space:pre">度量表征|Metric Representation</tspan></text></g><g transform="matrix(1,0,0,1,1309,201)" ed:width="306" ed:height="23.5" ed:parentid="128" id="132"><path fill="none" stroke-linejoin="round" d="M0,23.5L306,23.5" stroke="#454545"/><text class="st3"><tspan x="8" y="18.6" style="white-space:pre">拓扑表征|Topological Representation </tspan></text></g><g transform="matrix(1,0,0,1,984,246)" ed:width="250" ed:height="23.5" ed:parentid="126" id="134"><path fill="none" stroke-linejoin="round" d="M0,23.5L250,23.5" stroke="#454545"/><text class="st3"><tspan x="8" y="18.6" style="white-space:pre">路线图制作| Road Map Creation</tspan></text></g><g transform="matrix(1,0,0,1,1261,231)" ed:width="226" ed:height="23.5" ed:parentid="134" id="136"><path fill="none" stroke-linejoin="round" d="M0,23.5L226,23.5" stroke="#454545"/><text class="st3"><tspan x="8" y="18.6" style="white-space:pre">手动注释|Manual Annotation</tspan></text></g><g transform="matrix(1,0,0,1,1261,261)" ed:width="258" ed:height="23.5" ed:parentid="134" id="138"><path fill="none" stroke-linejoin="round" d="M0,23.5L258,23.5" stroke="#454545"/><text class="st3"><tspan x="8" y="18.6" style="white-space:pre">自动生成|Automated Generation </tspan></text></g><g transform="matrix(1,0,0,1,779,366)" ed:width="146" ed:height="23.5" ed:parentid="102" id="140"><path fill="none" stroke-linejoin="round" d="M0,23.5L146,23.5" stroke="#454545"/><text class="st3"><tspan x="8" y="18.6" style="white-space:pre">移动物体追踪|MOT</tspan></text></g><g transform="matrix(1,0,0,1,952,291)" ed:width="266" ed:height="23.5" ed:parentid="140" id="142"><path fill="none" stroke-linejoin="round" d="M0,23.5L266,23.5" stroke="#454545"/><text class="st3"><tspan x="8" y="18.6" style="white-space:pre">传统的MOT|Traditional Based MOT</tspan></text></g><g transform="matrix(1,0,0,1,952,321)" ed:width="250" ed:height="23.5" ed:parentid="140" id="144"><path fill="none" stroke-linejoin="round" d="M0,23.5L250,23.5" stroke="#454545"/><text class="st3"><tspan x="8" y="18.6" style="white-space:pre">基于模型的MOT|Model Based MOT</tspan></text></g><g transform="matrix(1,0,0,1,952,351)" ed:width="346" ed:height="23.5" ed:parentid="140" id="146"><path fill="none" stroke-linejoin="round" d="M0,23.5L346,23.5" stroke="#454545"/><text class="st3"><tspan x="8" y="18.6" style="white-space:pre">基于立体视觉的MOT|Stereo Vision Based MOT</tspan></text></g><g transform="matrix(1,0,0,1,952,381)" ed:width="298" ed:height="23.5" ed:parentid="140" id="148"><path fill="none" stroke-linejoin="round" d="M0,23.5L298,23.5" stroke="#454545"/><text class="st3"><tspan x="8" y="18.6" style="white-space:pre">基于栅格图的MOT| Grid Map Based MOT</tspan></text></g><g transform="matrix(1,0,0,1,952,411)" ed:width="362" ed:height="23.5" ed:parentid="140" id="150"><path fill="none" stroke-linejoin="round" d="M0,23.5L362,23.5" stroke="#454545"/><text class="st3"><tspan x="8" y="18.6" style="white-space:pre">基于传感器融合的MOT|Sensor Fusion Based MOT</tspan></text></g><g transform="matrix(1,0,0,1,952,441)" ed:width="354" ed:height="23.5" ed:parentid="140" id="152"><path fill="none" stroke-linejoin="round" d="M0,23.5L354,23.5" stroke="#454545"/><text class="st3"><tspan x="8" y="18.6" style="white-space:pre">基于深度学习的MOT| Deep Learning Based MOT</tspan></text></g><g transform="matrix(1,0,0,1,779,501)" ed:width="194" ed:height="23.5" ed:parentid="102" id="154"><path fill="none" stroke-linejoin="round" d="M0,23.5L194,23.5" stroke="#454545"/><text class="st3"><tspan x="8" y="18.6" style="white-space:pre">交通信号检测和识别|TSD</tspan></text></g><g transform="matrix(1,0,0,1,1000,471)" ed:width="466" ed:height="23.5" ed:parentid="154" id="156"><path fill="none" stroke-linejoin="round" d="M0,23.5L466,23.5" stroke="#454545"/><text class="st3"><tspan x="8" y="18.6" style="white-space:pre">交通灯检测和识别|Traffic Light Detection and Recognition</tspan></text></g><g transform="matrix(1,0,0,1,1000,501)" ed:width="474" ed:height="23.5" ed:parentid="154" id="158"><path fill="none" stroke-linejoin="round" d="M0,23.5L474,23.5" stroke="#454545"/><text class="st3"><tspan x="8" y="18.6" style="white-space:pre">交通标志检测和识别|Traffic Sign Detection and Recognition</tspan></text></g><g transform="matrix(1,0,0,1,1000,531)" ed:width="514" ed:height="23.5" ed:parentid="154" id="160"><path fill="none" stroke-linejoin="round" d="M0,23.5L514,23.5" stroke="#454545"/><text class="st3"><tspan x="8" y="18.6" style="white-space:pre">路面标记检测和识别| Pavement Marking Detection and Recognition</tspan></text></g><g transform="matrix(1,0,0,1,798,648)" ed:width="202" ed:height="23.5" ed:parentid="104" id="162"><path fill="none" stroke-linejoin="round" d="M0,23.5L202,23.5" stroke="#454545"/><text class="st3"><tspan x="8" y="18.6" style="white-space:pre">路线规划|Router Planner</tspan></text></g><g transform="matrix(1,0,0,1,1027,588)" ed:width="330" ed:height="23.5" ed:parentid="162" id="164"><path fill="none" stroke-linejoin="round" d="M0,23.5L330,23.5" stroke="#454545"/><text class="st3"><tspan x="8" y="18.6" style="white-space:pre">目标导向搜索法|Goal-Directed Techniques</tspan></text></g><g transform="matrix(1,0,0,1,1027,618)" ed:width="354" ed:height="23.5" ed:parentid="162" id="166"><path fill="none" stroke-linejoin="round" d="M0,23.5L354,23.5" stroke="#454545"/><text class="st3"><tspan x="8" y="18.6" style="white-space:pre">基于分割的方法| Separator-Based Techniques</tspan></text></g><g transform="matrix(1,0,0,1,1027,648)" ed:width="290" ed:height="23.5" ed:parentid="162" id="168"><path fill="none" stroke-linejoin="round" d="M0,23.5L290,23.5" stroke="#454545"/><text class="st3"><tspan x="8" y="18.6" style="white-space:pre">层次化方法|Hierarchical Techniques</tspan></text></g><g transform="matrix(1,0,0,1,1027,678)" ed:width="338" ed:height="23.5" ed:parentid="162" id="170"><path fill="none" stroke-linejoin="round" d="M0,23.5L338,23.5" stroke="#454545"/><text class="st3"><tspan x="8" y="18.6" style="white-space:pre">Bounded-Hop的方法|Bounded-Hop Techniques</tspan></text></g><g transform="matrix(1,0,0,1,798,813)" ed:width="202" ed:height="23.5" ed:parentid="104" id="172"><path fill="none" stroke-linejoin="round" d="M0,23.5L202,23.5" stroke="#454545"/><text class="st3"><tspan x="8" y="18.6" style="white-space:pre">运动规划|Motion Planner</tspan></text></g><g transform="matrix(1,0,0,1,1027,753)" ed:width="202" ed:height="23.5" ed:parentid="172" id="174"><path fill="none" stroke-linejoin="round" d="M0,23.5L202,23.5" stroke="#454545"/><text class="st3"><tspan x="8" y="18.6" style="white-space:pre">路径规划| Path Planning</tspan></text></g><g transform="matrix(1,0,0,1,1256,738)" ed:width="394" ed:height="23.5" ed:parentid="174" id="176"><path fill="none" stroke-linejoin="round" d="M0,23.5L394,23.5" stroke="#454545"/><text class="st3"><tspan x="8" y="18.6" style="white-space:pre">基于图搜索的方法|Graph Search Based Techniques </tspan></text></g><g transform="matrix(1,0,0,1,1256,768)" ed:width="458" ed:height="23.5" ed:parentid="174" id="178"><path fill="none" stroke-linejoin="round" d="M0,23.5L458,23.5" stroke="#454545"/><text class="st3"><tspan x="8" y="18.6" style="white-space:pre">基于曲线差值的方法|Interpolating Curve Based Techniques</tspan></text></g><g transform="matrix(1,0,0,1,1027,843)" ed:width="242" ed:height="23.5" ed:parentid="172" id="180"><path fill="none" stroke-linejoin="round" d="M0,23.5L242,23.5" stroke="#454545"/><text class="st3"><tspan x="8" y="18.6" style="white-space:pre">轨迹规划|Trajectory Planning</tspan></text></g><g transform="matrix(1,0,0,1,1296,798)" ed:width="386" ed:height="23.5" ed:parentid="180" id="182"><path fill="none" stroke-linejoin="round" d="M0,23.5L386,23.5" stroke="#454545"/><text class="st3"><tspan x="8" y="18.6" style="white-space:pre">基于图搜索的方法|Graph Search Based Techniques</tspan></text></g><g transform="matrix(1,0,0,1,1296,828)" ed:width="338" ed:height="23.5" ed:parentid="180" id="184"><path fill="none" stroke-linejoin="round" d="M0,23.5L338,23.5" stroke="#454545"/><text class="st3"><tspan x="8" y="18.6" style="white-space:pre">基于抽样的方法|Sampling Based Techniques</tspan></text></g><g transform="matrix(1,0,0,1,1296,858)" ed:width="458" ed:height="23.5" ed:parentid="180" id="186"><path fill="none" stroke-linejoin="round" d="M0,23.5L458,23.5" stroke="#454545"/><text class="st3"><tspan x="8" y="18.6" style="white-space:pre">基于曲线差值的方法|Interpolating Curve Based Techniques</tspan></text></g><g transform="matrix(1,0,0,1,1296,888)" ed:width="482" ed:height="23.5" ed:parentid="180" id="188"><path fill="none" stroke-linejoin="round" d="M0,23.5L482,23.5" stroke="#454545"/><text class="st3"><tspan x="8" y="18.6" style="white-space:pre">基于数值优化的方法|Numerical Optimization Based Techniques</tspan></text></g><g transform="matrix(1,0,0,1,798,933)" ed:width="138" ed:height="23.5" ed:parentid="104" id="190"><path fill="none" stroke-linejoin="round" d="M0,23.5L138,23.5" stroke="#454545"/><text class="st3"><tspan x="8" y="18.6" style="white-space:pre">控制|controller</tspan></text></g><g transform="matrix(1,0,0,1,963,918)" ed:width="290" ed:height="23.5" ed:parentid="190" id="192"><path fill="none" stroke-linejoin="round" d="M0,23.5L290,23.5" stroke="#454545"/><text class="st3"><tspan x="8" y="18.6" style="white-space:pre">路径跟踪控制|Path Tracking Methods</tspan></text></g><g transform="matrix(1,0,0,1,963,948)" ed:width="394" ed:height="23.5" ed:parentid="190" id="194"><path fill="none" stroke-linejoin="round" d="M0,23.5L394,23.5" stroke="#454545"/><text class="st3"><tspan x="8" y="18.6" style="white-space:pre">硬件驱动控制|Hardware Actuation Control Methods</tspan></text></g><g transform="matrix(1,0,0,1,1027,708)" ed:width="154" ed:height="23.5" ed:parentid="162" id="196"><path fill="none" stroke-linejoin="round" d="M0,23.5L154,23.5" stroke="#454545"/><text class="st3"><tspan x="8" y="18.6" style="white-space:pre">融合|Combinations</tspan></text></g><symbol id="plus"><path fill="url(#lg1)" d="M11,6C11,8.8,8.8,11,6,11C3.2,11,1,8.8,1,6C1,3.2,3.2,1,6,1C8.8,1,11,3.2,11,6z"/><path stroke-width="0.7" fill="none" d="M11,6C11,8.8,8.8,11,6,11C3.2,11,1,8.8,1,6C1,3.2,3.2,1,6,1C8.8,1,11,3.2,11,6zM3,6L9,6M6,3L6,9" stroke="#46a000"/></symbol><symbol id="minus"><path fill="url(#lg1)" d="M11,6C11,8.8,8.8,11,6,11C3.2,11,1,8.8,1,6C1,3.2,3.2,1,6,1C8.8,1,11,3.2,11,6z"/><path stroke-width="0.7" fill="none" d="M11,6C11,8.8,8.8,11,6,11C3.2,11,1,8.8,1,6C1,3.2,3.2,1,6,1C8.8,1,11,3.2,11,6zM3,6L9,6" stroke="#46a000"/></symbol><g transform="translate(497,490)" ed:togtopicid="101"><use xlink:href="#minus"/></g><g transform="translate(753,282)" ed:togtopicid="102"><use xlink:href="#minus"/></g><g transform="translate(772,773)" ed:togtopicid="104"><use xlink:href="#minus"/></g><g transform="translate(942,57)" ed:togtopicid="106"><use xlink:href="#minus"/></g><g transform="translate(1014,132)" ed:togtopicid="116"><use xlink:href="#minus"/></g><g transform="translate(958,222)" ed:togtopicid="126"><use xlink:href="#minus"/></g><g transform="translate(1283,192)" ed:togtopicid="128"><use xlink:href="#minus"/></g><g transform="translate(1235,252)" ed:togtopicid="134"><use xlink:href="#minus"/></g><g transform="translate(926,372)" ed:togtopicid="140"><use xlink:href="#minus"/></g><g transform="translate(974,507)" ed:togtopicid="154"><use xlink:href="#minus"/></g><g transform="translate(1001,653)" ed:togtopicid="162"><use xlink:href="#minus"/></g><g transform="translate(1001,818)" ed:togtopicid="172"><use xlink:href="#minus"/></g><g transform="translate(1230,758)" ed:togtopicid="174"><use xlink:href="#minus"/></g><g transform="translate(1270,848)" ed:togtopicid="180"><use xlink:href="#minus"/></g><g transform="translate(937,938)" ed:togtopicid="190"><use xlink:href="#minus"/></g></svg>